<?xml version="1.0" encoding="UTF-8" standalone="no"?>
<svg
   xmlns:dc="http://purl.org/dc/elements/1.1/"
   xmlns:cc="http://creativecommons.org/ns#"
   xmlns:rdf="http://www.w3.org/1999/02/22-rdf-syntax-ns#"
   xmlns:svg="http://www.w3.org/2000/svg"
   xmlns="http://www.w3.org/2000/svg"
   id="svg8"
   version="1.1"
   viewBox="0 0 210 297"
   height="297mm"
   width="210mm">
  <defs
     id="defs2" />
  <metadata
     id="metadata5">
    <rdf:RDF>
      <cc:Work
         rdf:about="">
        <dc:format>image/svg+xml</dc:format>
        <dc:type
           rdf:resource="http://purl.org/dc/dcmitype/StillImage" />
        <dc:title></dc:title>
      </cc:Work>
    </rdf:RDF>
  </metadata>
  <rect
     style="opacity:1;fill:none;fill-opacity:1;stroke:#000000;stroke-width:0.2;stroke-linecap:butt;stroke-linejoin:miter;stroke-miterlimit:4;stroke-dasharray:none;stroke-dashoffset:0;stroke-opacity:1"
     id="rect815"
     width="276.14157"
     height="221.04643"
     x="-35.620678"
     y="2.2625058" />
  <path
     style="fill:#b3b3b3;stroke:#b3b3b3;stroke-width:0.20121749px;stroke-linecap:butt;stroke-linejoin:miter;stroke-opacity:1"
     d="M 49.758028,90.399096 V 74.833587 H 65.32666 80.895291 V 90.399096 105.96461 H 65.32666 49.758028 Z"
     id="path885" />
  <path
     style="fill:#b3b3b3;stroke:#b3b3b3;stroke-width:0.34813595px;stroke-linecap:butt;stroke-linejoin:miter;stroke-opacity:1"
     d="m 0.713163,61.200665 c -2.66504,-1.117407 -4.222025,-2.172628 -6.268897,-4.248639 -7.262063,-7.36545 -10.055184,-21.322612 -6.631452,-33.137197 2.090486,-7.213836 6.583106,-13.222822 11.790564,-15.7701626 2.274019,-1.112386 2.65354,-1.188507 5.925631,-1.188507 3.272091,0 3.6516119,0.07612 5.925631,1.188507 5.196917,2.5421846 9.700263,8.5569636 11.779978,15.7336346 4.279792,14.76866 -1.008609,31.554951 -11.593403,36.799466 -2.3279631,1.153451 -2.911494,1.293548 -5.744242,1.37912 -2.693757,0.08137 -3.448865,-0.02879 -5.18381,-0.756222 z"
     id="path887" />
  <path
     style="fill:#b3b3b3;stroke:#b3b3b3;stroke-width:0.34813595px;stroke-linecap:butt;stroke-linejoin:miter;stroke-opacity:1"
     d="m -4.1208316,217.51346 c -3.7648996,-1.54838 -5.3012345,-2.79135 -6.6702334,-5.39656 -1.72865,-3.28963 -2.388971,-6.36085 -2.402634,-11.17494 -0.01267,-4.46684 0.444146,-7.97155 1.67899,-12.88103 4.8301083,-19.20347 18.2580399,-41.07442 35.378476,-57.62324 4.573204,-4.42052 10.33977,-9.22582 13.488555,-11.24007 8.454826,-5.40849 18.652921,-6.10152 29.301365,-1.99122 14.565932,5.62244 29.95839,20.86615 38.247113,37.8775 4.03326,8.27766 5.43706,13.60862 5.16924,19.63039 -0.1497,3.36587 -0.25338,3.7863 -1.60792,6.51988 -0.85143,1.71824 -1.97386,3.38379 -2.7246,4.04295 -1.11274,0.977 -1.4657,1.09965 -2.74835,0.95508 -1.98472,-0.22371 -3.230142,-1.24172 -8.608451,-7.03655 -7.485433,-8.06515 -11.369268,-11.26733 -16.667975,-13.74256 -4.880361,-2.2798 -6.662163,-2.63535 -13.000622,-2.59419 -5.036833,0.0327 -5.9631,0.13899 -9.673828,1.10999 -2.368547,0.61979 -5.655834,1.81529 -7.774675,2.82744 -11.520649,5.50329 -19.002328,13.63281 -28.861433,31.36054 -6.068254,10.91137 -11.0764318,17.40683 -14.8841516,19.3043 -2.3256292,1.15891 -4.9051775,1.17656 -7.638866,0.0523 z"
     id="path889" />
  <path
     style="fill:#b3b3b3;stroke:#b3b3b3;stroke-width:0.34813595px;stroke-linecap:butt;stroke-linejoin:miter;stroke-opacity:1"
     d="m 73.04502,221.65622 c -0.279971,-0.67007 -0.685011,-2.35417 -0.900088,-3.74246 -1.590151,-10.26415 7.040721,-20.10503 17.632979,-20.10503 8.602942,0 16.141639,6.45707 17.599939,15.07475 0.46415,2.74284 0.096,6.46787 -0.86705,8.77274 l -0.50904,1.2183 H 89.777911 73.55406 Z"
     id="path891" />
  <path
     style="fill:#b3b3b3;stroke:#b3b3b3;stroke-width:0.59703022px;stroke-linecap:butt;stroke-linejoin:miter;stroke-opacity:1"
     d="m 182.55614,177.31186 v -45.99709 h 28.98237 28.98238 v 45.99709 45.99709 h -28.98238 -28.98237 z"
     id="path893" />
  <path
     style="fill:#4d4d4d;stroke:#4d4d4d;stroke-width:0.41192001px;stroke-linecap:butt;stroke-linejoin:miter;stroke-opacity:1"
     d="M -35.237715,109.73034 V 90.582856 h 24.369517 24.36952 v 19.147484 19.14747 h -24.36952 -24.369517 z"
     id="path895" />
  <path
     style="fill:#4d4d4d;stroke:#4d4d4d;stroke-width:0.19879337px;stroke-linecap:butt;stroke-linejoin:miter;stroke-opacity:1"
     d="M 107.58775,58.95248 V 41.243048 h 13.25517 13.25519 V 58.95248 76.661913 h -13.25519 -13.25517 z"
     id="path899" />
  <path
     style="fill:#4d4d4d;stroke:#4d4d4d;stroke-width:0.34813595px;stroke-linecap:butt;stroke-linejoin:miter;stroke-opacity:1"
     d="M 59.942909,30.773221 V 2.5742119 h 8.877466 8.877467 V 30.773221 58.972235 h -8.877467 -8.877466 z"
     id="path901" />
  <path
     style="fill:#4d4d4d;stroke:#4d4d4d;stroke-width:0.34813595px;stroke-linecap:butt;stroke-linejoin:miter;stroke-opacity:1"
     d="m 192.2191,104.4986 c -12.82941,-2.00728 -22.2005,-13.978163 -21.381,-27.312647 0.26268,-4.274264 0.9143,-6.824647 2.67005,-10.450409 2.51281,-5.189141 6.59048,-9.283205 11.65901,-11.705868 3.82268,-1.827165 6.29435,-2.393638 10.44408,-2.393638 4.30937,0 6.69501,0.575641 10.867,2.622138 5.23086,2.565908 9.80664,7.560545 12.04194,13.144243 5.93217,14.818288 -2.17934,31.731101 -17.04958,35.549021 -2.69459,0.69183 -6.78183,0.93356 -9.2515,0.54716 z"
     id="path903" />
  <path
     style="fill:#4d4d4d;stroke:#4d4d4d;stroke-width:0.34813595px;stroke-linecap:butt;stroke-linejoin:miter;stroke-opacity:1"
     d="m 123.37303,133.75172 v -11.48848 h 12.18476 12.18476 v 11.48848 11.48849 h -12.18476 -12.18476 z"
     id="path909" />
  <path
     style="fill:#4d4d4d;stroke:#4d4d4d;stroke-width:0.23513779px;stroke-linecap:butt;stroke-linejoin:miter;stroke-opacity:1"
     d="m 153.12163,194.18895 c -8.85158,-1.3272 -15.31713,-9.24235 -14.75172,-18.0591 0.18125,-2.82615 0.63082,-4.51246 1.84219,-6.90981 1.7337,-3.43106 4.54708,-6.13806 8.04409,-7.73992 2.63743,-1.20812 4.34275,-1.58268 7.20583,-1.58268 2.97323,0 4.6192,0.38062 7.49764,1.73376 3.609,1.69658 6.76603,4.99903 8.30828,8.69097 4.09286,9.79785 -1.50363,20.9806 -11.76328,23.505 -1.85911,0.45745 -4.67909,0.61728 -6.38303,0.36178 z"
     id="path903-4" />
  <path
     style="fill:#b3b3b3;stroke:#b3b3b3;stroke-width:0.26304808px;stroke-linecap:butt;stroke-linejoin:miter;stroke-opacity:1"
     d="M 93.487605,92.734176 V 77.199582 h 26.659535 26.65955 V 92.734176 108.26878 H 120.14714 93.487605 Z"
     id="path885-3" />
</svg>
